<?xml version="1.0" encoding="UTF-8"?>
<svg id="Capa_1" data-name="Capa 1" xmlns="http://www.w3.org/2000/svg" viewBox="0 0 1920 452">
  <defs>
    <style>
      .cls-1 {
        fill: #b13228;
      }
    </style>
  </defs>
  <path d="m24.8,20.12h137.05c66.15,0,110.25,44.1,110.25,110.25s-44.1,112.41-110.25,112.41h-83.01v79.98H24.8V20.12Zm193.26,111.98c0-38.05-24.21-62.26-60.96-62.26h-78.25v123.22h78.25c36.75,0,60.96-24.21,60.96-60.96Z"/>
  <path d="m390.99,103.56c67.01,0,111.54,44.53,111.54,111.11s-44.53,111.97-111.54,111.97-111.97-44.96-111.97-111.97,44.96-111.11,111.97-111.11Zm-.43,175.53c36.32,0,60.09-23.78,60.09-63.99s-23.78-63.99-60.09-63.99-59.66,23.78-59.66,63.99,23.78,63.99,59.66,63.99Z"/>
  <path d="m522.42,20.12h51.88v302.64h-51.88V20.12Z"/>
  <path d="m626.18,15.36c16,0,28.54,12.97,28.54,28.53,0,16.43-12.54,28.98-28.54,28.98s-28.53-12.54-28.53-28.98c0-15.56,12.54-28.53,28.53-28.53Zm-25.94,91.22h51.88v216.18h-51.88V106.58Z"/>
  <path d="m780.96,279.09c26.37,0,45.83-12.54,54.91-34.59h54.05c-11.67,50.15-51.88,82.14-108.52,82.14-67.01,0-111.98-44.96-111.98-111.97s44.96-111.11,111.98-111.11c56.2,0,96.85,31.56,108.08,80.84h-54.04c-9.08-21.19-28.53-33.29-54.48-33.29-35.88,0-59.66,23.78-59.66,63.99s23.78,63.99,59.66,63.99Z"/>
  <path d="m885.58,106.58h54.04l51.88,149.6,51.88-149.6h54.04l-76.52,216.18c-17.72,50.58-30.27,106.79-102.9,106.79v-47.57c28.96,0,52.31-35.88,41.94-64.85l-74.36-210.56Z"/>
  <path class="cls-1" d="m1244.43,193.06l-34.59-109.82-34.59,109.82-15.57,49.72-25.07,79.98h-56.64l103.76-302.64h56.63l103.76,302.64h-56.64l-25.07-79.98-16-49.72Z"/>
  <path class="cls-1" d="m1350.78,20.12h51.88v302.64h-51.88V20.12Z"/>
  <path class="cls-1" d="m1582.94,255.75h56.64c-14.27,43.67-52.75,70.9-105.06,70.9-67.01,0-111.97-44.96-111.97-111.97s44.96-111.11,111.97-111.11,111.54,44.53,111.54,111.11c0,6.05-.43,11.67-.86,17.29h-169.05c5.62,29.84,27.24,47.13,57.94,47.13,21.61,0,38.48-8.21,48.85-23.35Zm5.62-71.34c-9.08-21.19-28.54-33.29-54.48-33.29s-44.96,12.1-54.05,33.29h108.52Z"/>
  <path class="cls-1" d="m1773.17,102.7v47.56c-34.59,0-55.34,16.86-55.34,51.45v121.06h-51.88v-121.06c0-65.72,41.51-99.01,107.22-99.01Z"/>
  <path class="cls-1" d="m1902,325.78c-70.9,0-108.52-35.89-108.52-102.47V20.12h51.88v86.47h49.28v47.56h-49.28v68.75c0,39.34,16,55.34,56.63,55.34v47.55Z"/>
</svg>